<?xml version="1.0" encoding="utf-8"?>
<!-- Generator: Adobe Illustrator 17.0.0, SVG Export Plug-In . SVG Version: 6.00 Build 0)  -->
<!DOCTYPE svg PUBLIC "-//W3C//DTD SVG 1.1//EN" "http://www.w3.org/Graphics/SVG/1.1/DTD/svg11.dtd">
<svg version="1.1" id="Capa_1" xmlns="http://www.w3.org/2000/svg" xmlns:xlink="http://www.w3.org/1999/xlink" x="0px" y="0px"
	 width="792px" height="612px" viewBox="0 0 792 612" enable-background="new 0 0 792 612" xml:space="preserve">
<g>
	<g>
		<g>
			<g>
				<rect x="282.032" y="168.444" fill="#1D1E1C" width="12.408" height="12.408"/>
				<polygon fill-rule="evenodd" clip-rule="evenodd" fill="#AFF5F0" points="242.148,34.906 251.507,112.645 120.498,167.929 				
					"/>
				<polygon fill-rule="evenodd" clip-rule="evenodd" fill="#6DDFE8" points="318.985,104.119 241.948,34.706 251.507,112.645 				
					"/>
				<polygon fill-rule="evenodd" clip-rule="evenodd" fill="#6CC3E3" points="279.622,237.771 318.985,104.119 251.507,112.645 				
					"/>
				<polygon fill-rule="evenodd" clip-rule="evenodd" fill="#62FFFA" points="120.498,167.929 277.256,227.7 251.507,112.645 				
					"/>
				<polygon fill-rule="evenodd" clip-rule="evenodd" fill="#00FFF9" points="394.818,261.003 318.96,104.039 279.622,237.771 				
					"/>
				<polygon fill-rule="evenodd" clip-rule="evenodd" fill="#71D8D2" points="309.213,363.08 279.622,237.771 394.818,261.003 				
					"/>
				<polygon fill-rule="evenodd" clip-rule="evenodd" fill="#00E3FF" points="362.318,345.663 394.818,261.003 309.213,363.08 				
					"/>
				<polygon fill-rule="evenodd" clip-rule="evenodd" fill="#09F4F6" points="333.429,464.028 362.318,345.663 309.213,363.08 				
					"/>
				<polygon fill-rule="evenodd" clip-rule="evenodd" fill="#A865D7" points="517.195,293.102 362.318,345.663 394.818,261.003 				
					"/>
				<polygon fill-rule="evenodd" clip-rule="evenodd" fill="#825CFF" points="488.014,248.163 517.195,293.102 394.818,261.003 				
					"/>
				<polygon fill-rule="evenodd" clip-rule="evenodd" fill="#D57EE6" points="434.541,166.712 488.014,248.163 394.818,261.003 				
					"/>
				<polygon fill-rule="evenodd" clip-rule="evenodd" fill="#55D0F0" points="434.541,166.712 394.818,261.003 318.985,104.119 				
					"/>
				<polygon fill-rule="evenodd" clip-rule="evenodd" fill="#00E7FF" points="318.985,104.119 373.553,47.946 434.541,166.712 				
					"/>
				<polygon fill-rule="evenodd" clip-rule="evenodd" fill="#9E8BFC" points="450.991,76.033 434.541,166.712 373.553,47.946 				
					"/>
				<polygon fill-rule="evenodd" clip-rule="evenodd" fill="#EB6DA4" points="501.547,40.724 434.541,166.712 450.991,76.033 				
					"/>
				<polygon fill-rule="evenodd" clip-rule="evenodd" fill="#DB4A84" points="517.195,293.102 501.547,40.724 434.541,166.712 				
					"/>
				<polygon fill-rule="evenodd" clip-rule="evenodd" fill="#E55D90" points="597.443,142.638 501.547,40.724 517.195,293.102 				
					"/>
				<polygon fill-rule="evenodd" clip-rule="evenodd" fill="#F78D8F" points="621.115,100.91 597.443,142.638 501.547,40.724 				
					"/>
				<polygon fill-rule="evenodd" clip-rule="evenodd" fill="#FFB985" points="627.134,90.477 597.443,142.638 751.942,203.802 				
					"/>
				<polygon fill-rule="evenodd" clip-rule="evenodd" fill="#DB4A84" points="517.195,293.102 751.942,203.802 597.443,142.638 				
					"/>
				<polygon fill="#FF738E" points="340.05,448.159 350.491,448.159 407.457,395.172 407.457,385.967 417.354,385.967 
					517.195,293.102 362.318,345.663 333.429,464.028 340.05,457.87 				"/>
				<polygon fill="#2BFFDE" points="64.802,237.911 64.802,240.318 60.79,240.318 60.79,250.349 82.858,250.349 82.858,253.96 
					91.685,253.96 91.685,256.696 277.256,227.7 109.941,163.904 28.919,237.338 45.944,232.294 				"/>
				<polygon fill="#5CE3CF" points="303.858,340.404 277.256,227.7 91.685,256.696 91.685,260.781 88.876,260.781 88.876,269.207 
					93.691,269.207 93.691,288.868 99.71,288.868 99.71,294.886 				"/>
				<polygon fill="#FF858E" points="664.248,314.948 658.631,314.948 658.631,312.541 690.73,300.905 696.347,309.331 
					699.557,309.331 699.557,314.146 703.57,320.566 699.958,320.566 699.958,324.979 705.977,324.979 705.977,299.3 700.761,299.3 
					700.761,291.677 706.779,287.664 710.792,287.664 714.804,287.664 724.835,287.664 724.835,281.244 732.057,277.232 
					732.057,263.991 734.866,263.991 734.866,253.96 729.249,253.96 729.249,251.954 750.514,242.726 764.156,242.726 
					764.156,238.312 758.539,238.312 758.539,232.294 772.285,224.439 751.942,203.802 517.195,293.102 664.248,319.07 				"/>
				<polygon fill="#C42D72" points="557.921,386.769 557.921,416.236 630.946,398.403 630.946,391.183 623.322,389.177 
					623.322,383.961 644.588,383.961 644.588,372.325 633.754,372.325 656.625,356.276 656.625,347.448 649.001,347.448 
					649.001,345.041 664.248,339.825 664.248,319.07 517.195,293.102 533.787,386.769 				"/>
				<polygon fill="#E63B88" points="372.951,477.596 381.778,480.627 381.778,432.109 407.457,432.109 407.457,395.172 
					350.491,448.159 372.951,448.159 				"/>
				<polygon fill="#F2388A" points="444.371,385.967 444.371,454.177 451.593,454.177 451.593,424.084 479.68,424.084 
					479.68,408.436 509.773,408.436 509.773,452.973 520.606,452.973 520.606,386.769 533.787,386.769 517.195,293.102 
					417.354,385.967 				"/>
				<polygon fill="#E63B88" points="340.05,457.87 333.429,464.028 340.05,466.301 				"/>
				<polygon fill="#B13C68" points="561.131,454.177 561.131,463.807 564.341,460.196 569.958,459.794 569.958,449.362 
					564.742,449.362 564.742,446.152 586.007,438.529 603.26,438.529 603.26,452.171 609.279,452.171 609.279,433.313 
					615.699,433.313 615.699,424.887 610.081,424.887 610.081,418.868 626.933,418.868 626.933,399.609 630.946,399.609 
					630.946,398.403 557.921,416.236 557.921,454.177 				"/>
				<polygon fill="#00A5C0" points="335.636,483.869 335.636,485.473 328.815,485.473 328.815,493.097 331.223,493.097 
					331.223,496.307 340.05,496.307 340.05,466.301 333.429,464.028 326.104,482.32 				"/>
				<polygon fill="#00A5C0" points="372.951,499.116 381.778,499.116 381.778,480.627 372.951,477.596 				"/>
				<polygon fill="#6CBFB7" points="260.204,469.023 268.229,470.227 268.63,479.856 288.29,466.615 302.334,471.43 
					302.334,473.035 297.92,473.035 297.92,483.869 303.537,478.652 326.104,482.32 333.429,464.028 260.204,464.028 				"/>
				<polygon fill="#00D3CA" points="303.858,340.404 183.568,383.585 183.568,394.393 201.222,394.393 201.222,396.8 197.611,396.8 
					197.611,410.442 203.228,406.831 211.654,406.831 211.654,428.498 218.475,428.498 218.475,432.912 212.056,432.912 
					212.056,440.134 248.568,450.165 252.58,451.77 268.63,456.585 268.63,460.196 260.204,460.196 260.204,464.028 
					333.429,464.028 				"/>
				<polygon fill="#5DF3E7" points="100.561,294.911 106.677,296.558 110.288,297.361 120.319,300.169 120.319,309.398 
					115.906,309.398 115.906,345.91 172.079,348.719 172.079,354.737 166.461,354.737 166.461,365.972 182.511,373.997 
					182.511,378.811 180.104,378.811 180.104,384.77 303.858,340.404 				"/>
			</g>
			<g>
				<path fill="#FFFFFF" d="M152.555,282.586V159.305h27.975v98.801h63.399v24.48H152.555z"/>
				<path fill="#FFFFFF" d="M307.326,282.586v-10.215c-3.392,3.641-7.448,6.547-12.171,8.718
					c-4.723,2.171-10.477,3.258-17.257,3.258c-4.604,0-8.933-0.616-12.989-1.849c-4.059-1.233-7.601-3.082-10.627-5.547
					c-3.029-2.466-5.421-5.487-7.175-9.07c-1.757-3.58-2.634-7.719-2.634-12.416v-0.352c0-5.165,0.968-9.626,2.906-13.385
					c1.936-3.756,4.633-6.869,8.084-9.334c3.451-2.466,7.567-4.315,12.353-5.548c4.782-1.233,10.082-1.849,15.895-1.849
					c4.964,0,9.293,0.352,12.988,1.057c3.693,0.704,7.295,1.645,10.809,2.818v-1.585c0-5.636-1.757-9.92-5.268-12.856
					c-3.514-2.933-8.719-4.403-15.623-4.403c-5.331,0-10.022,0.44-14.078,1.321c-4.059,0.881-8.328,2.144-12.807,3.786
					l-6.903-20.429c5.328-2.229,10.9-4.051,16.713-5.46c5.813-1.409,12.835-2.113,21.072-2.113c15.137,0,26.159,3.583,33.062,10.743
					c6.903,7.163,10.355,17.144,10.355,29.94v54.772H307.326z M307.87,244.545c-2.424-1.057-5.117-1.907-8.084-2.554
					c-2.969-0.644-6.148-0.969-9.537-0.969c-5.935,0-10.599,1.117-13.988,3.346c-3.392,2.232-5.086,5.46-5.086,9.686v0.352
					c0,3.641,1.391,6.459,4.178,8.454c2.784,1.998,6.417,2.994,10.899,2.994c6.54,0,11.777-1.524,15.714-4.579
					c3.934-3.052,5.904-7.045,5.904-11.976V244.545z"/>
				<path fill="#FFFFFF" d="M474.448,221.121c-2.665,5.402-6.329,9.923-10.99,13.561c-4.664,3.641-10.114,6.37-16.349,8.189
					c-6.239,1.822-12.929,2.73-20.073,2.73h-21.254v36.984h-27.976V159.305h51.954c7.63,0,14.442,1.029,20.437,3.082
					c5.994,2.056,11.081,4.961,15.259,8.718c4.178,3.759,7.385,8.25,9.628,13.473c2.24,5.226,3.361,11.007,3.361,17.347v0.352
					C478.445,209.44,477.111,215.722,474.448,221.121z M450.106,202.453c0-6.103-2.03-10.743-6.085-13.913
					c-4.059-3.17-9.6-4.755-16.622-4.755h-21.617v37.689h22.162c7.023,0,12.472-1.789,16.349-5.372
					c3.875-3.58,5.814-8.013,5.814-13.297V202.453z"/>
				<path fill="#FFFFFF" d="M534.577,282.586v-10.215c-3.392,3.641-7.448,6.547-12.171,8.718s-10.477,3.258-17.257,3.258
					c-4.604,0-8.933-0.616-12.989-1.849c-4.059-1.233-7.601-3.082-10.627-5.547c-3.029-2.466-5.421-5.487-7.175-9.07
					c-1.757-3.58-2.634-7.719-2.634-12.416v-0.352c0-5.165,0.968-9.626,2.907-13.385c1.936-3.756,4.632-6.869,8.084-9.334
					c3.452-2.466,7.567-4.315,12.353-5.548c4.783-1.233,10.082-1.849,15.895-1.849c4.964,0,9.293,0.352,12.988,1.057
					c3.693,0.704,7.295,1.645,10.809,2.818v-1.585c0-5.636-1.757-9.92-5.268-12.856c-3.514-2.933-8.719-4.403-15.623-4.403
					c-5.33,0-10.022,0.44-14.078,1.321c-4.059,0.881-8.328,2.144-12.807,3.786l-6.903-20.429c5.328-2.229,10.9-4.051,16.713-5.46
					c5.813-1.409,12.835-2.113,21.072-2.113c15.138,0,26.159,3.583,33.062,10.743c6.903,7.163,10.354,17.144,10.354,29.94v54.772
					H534.577z M535.122,244.545c-2.424-1.057-5.118-1.907-8.084-2.554c-2.969-0.644-6.148-0.969-9.537-0.969
					c-5.935,0-10.599,1.117-13.988,3.346c-3.392,2.232-5.086,5.46-5.086,9.686v0.352c0,3.641,1.391,6.459,4.178,8.454
					c2.784,1.998,6.418,2.994,10.9,2.994c6.54,0,11.776-1.524,15.713-4.579c3.934-3.052,5.904-7.045,5.904-11.976V244.545z"/>
				<path fill="#FFFFFF" d="M563.097,282.586v-18.844l50.319-53.892h-48.684v-21.662h83.018v18.844l-50.501,53.892h50.501v21.662
					H563.097z"/>
			</g>
			<g>
				<path fill="#FFFFFF" d="M172.994,325.046c-1.638,0.9-3.766,1.351-6.386,1.351c-1.965,0-3.791-0.361-5.477-1.081
					c-1.687-0.72-3.137-1.695-4.348-2.923c-1.212-1.228-2.161-2.669-2.849-4.323c-0.688-1.653-1.031-3.414-1.031-5.281v-0.098
					c0-1.867,0.344-3.635,1.031-5.306c0.688-1.67,1.637-3.127,2.849-4.372c1.211-1.244,2.66-2.227,4.348-2.948
					c1.687-0.72,3.545-1.081,5.576-1.081c2.489,0,4.552,0.393,6.19,1.179c1.637,0.786,3.078,1.867,4.323,3.242l-4.568,4.913
					c-0.852-0.884-1.728-1.588-2.628-2.112c-0.901-0.523-2.023-0.786-3.365-0.786c-0.95,0-1.81,0.189-2.579,0.565
					c-0.77,0.377-1.441,0.893-2.014,1.547c-0.574,0.656-1.015,1.417-1.326,2.284c-0.312,0.868-0.467,1.793-0.467,2.776v0.098
					c0,1.016,0.155,1.965,0.467,2.849c0.311,0.884,0.761,1.654,1.351,2.309c0.59,0.656,1.294,1.171,2.113,1.547
					c0.818,0.377,1.735,0.565,2.751,0.565c1.244,0,2.333-0.253,3.267-0.761c0.933-0.507,1.858-1.187,2.776-2.039l4.372,4.421
					C176.089,322.991,174.631,324.146,172.994,325.046z"/>
				<path fill="#FFFFFF" d="M180.756,296.578v-6.632h7.86v6.632H180.756z M180.952,325.808v-26.332h7.467v26.332H180.952z"/>
				<path fill="#FFFFFF" d="M210.28,325.808v-3.764c-0.426,0.561-0.893,1.097-1.4,1.608c-0.508,0.511-1.073,0.965-1.695,1.361
					c-0.623,0.396-1.31,0.709-2.063,0.94c-0.754,0.23-1.605,0.346-2.554,0.346c-2.849,0-5.053-0.867-6.607-2.604
					c-1.556-1.736-2.334-4.127-2.334-7.172v-17.047h7.467v14.653c0,1.765,0.393,3.097,1.179,3.995
					c0.786,0.898,1.899,1.347,3.34,1.347c1.441,0,2.579-0.449,3.414-1.347c0.835-0.898,1.253-2.23,1.253-3.995v-14.653h7.467v26.332
					H210.28z"/>
				<path fill="#FFFFFF" d="M241.818,325.808v-3.75c-0.917,1.235-2.023,2.25-3.316,3.047c-1.294,0.796-2.923,1.194-4.888,1.194
					c-1.54,0-3.03-0.295-4.47-0.884c-1.441-0.59-2.719-1.465-3.832-2.628c-1.114-1.162-2.007-2.587-2.677-4.274
					c-0.672-1.687-1.007-3.627-1.007-5.822v-0.098c0-2.194,0.335-4.134,1.007-5.822c0.671-1.686,1.555-3.111,2.653-4.274
					c1.097-1.162,2.366-2.039,3.807-2.628c1.441-0.589,2.948-0.884,4.52-0.884c1.997,0,3.643,0.39,4.937,1.17
					c1.294,0.78,2.383,1.69,3.267,2.73v-12.939h7.467v35.862H241.818z M241.916,312.593c0-1.089-0.172-2.086-0.516-2.992
					c-0.344-0.907-0.803-1.681-1.376-2.324c-0.574-0.643-1.245-1.137-2.014-1.484c-0.77-0.346-1.596-0.52-2.481-0.52
					c-0.884,0-1.712,0.173-2.481,0.52c-0.77,0.346-1.449,0.84-2.039,1.484c-0.59,0.643-1.056,1.409-1.4,2.3
					c-0.344,0.89-0.516,1.896-0.516,3.017v0.098c0,1.089,0.172,2.086,0.516,2.993c0.344,0.906,0.81,1.681,1.4,2.324
					c0.59,0.643,1.269,1.138,2.039,1.484c0.769,0.346,1.597,0.519,2.481,0.519c0.884,0,1.711-0.173,2.481-0.519
					c0.769-0.346,1.441-0.84,2.014-1.484c0.573-0.643,1.031-1.418,1.376-2.324c0.344-0.907,0.516-1.904,0.516-2.993V312.593z"/>
				<path fill="#FFFFFF" d="M269.77,325.808v-2.849c-0.917,1.016-2.014,1.826-3.291,2.432c-1.277,0.606-2.833,0.909-4.667,0.909
					c-1.245,0-2.416-0.172-3.513-0.516c-1.098-0.344-2.056-0.86-2.874-1.547c-0.819-0.688-1.466-1.531-1.94-2.53
					c-0.475-0.999-0.713-2.153-0.713-3.463v-0.098c0-1.441,0.262-2.685,0.786-3.734c0.523-1.048,1.253-1.916,2.186-2.604
					c0.933-0.688,2.046-1.204,3.341-1.547c1.293-0.344,2.726-0.516,4.299-0.516c1.342,0,2.513,0.098,3.512,0.295
					c0.999,0.196,1.973,0.459,2.923,0.786v-0.442c0-1.572-0.475-2.767-1.424-3.586c-0.95-0.818-2.358-1.228-4.225-1.228
					c-1.442,0-2.711,0.123-3.807,0.368c-1.098,0.246-2.252,0.598-3.463,1.056l-1.867-5.699c1.441-0.622,2.947-1.13,4.52-1.523
					c1.572-0.393,3.471-0.59,5.699-0.59c4.094,0,7.074,0.999,8.941,2.997c1.867,1.998,2.8,4.782,2.8,8.352v15.278H269.77z
					 M269.918,315.197c-0.656-0.295-1.384-0.532-2.186-0.712c-0.803-0.18-1.663-0.27-2.579-0.27c-1.605,0-2.866,0.312-3.783,0.933
					c-0.917,0.623-1.376,1.523-1.376,2.702v0.098c0,1.016,0.376,1.802,1.13,2.358c0.753,0.557,1.735,0.835,2.947,0.835
					c1.769,0,3.185-0.425,4.25-1.277c1.064-0.851,1.597-1.965,1.597-3.341V315.197z"/>
				<path fill="#FFFFFF" d="M300.818,325.808v-3.75c-0.917,1.235-2.023,2.25-3.316,3.047c-1.294,0.796-2.923,1.194-4.888,1.194
					c-1.54,0-3.03-0.295-4.47-0.884c-1.441-0.59-2.719-1.465-3.832-2.628c-1.114-1.162-2.007-2.587-2.677-4.274
					c-0.672-1.687-1.007-3.627-1.007-5.822v-0.098c0-2.194,0.335-4.134,1.007-5.822c0.671-1.686,1.555-3.111,2.653-4.274
					c1.097-1.162,2.366-2.039,3.807-2.628c1.441-0.589,2.948-0.884,4.52-0.884c1.997,0,3.643,0.39,4.937,1.17
					c1.294,0.78,2.383,1.69,3.267,2.73v-12.939h7.467v35.862H300.818z M300.916,312.593c0-1.089-0.172-2.086-0.516-2.992
					c-0.344-0.907-0.803-1.681-1.376-2.324c-0.574-0.643-1.245-1.137-2.014-1.484c-0.77-0.346-1.596-0.52-2.481-0.52
					c-0.884,0-1.712,0.173-2.481,0.52c-0.77,0.346-1.449,0.84-2.039,1.484c-0.59,0.643-1.056,1.409-1.4,2.3
					c-0.344,0.89-0.516,1.896-0.516,3.017v0.098c0,1.089,0.172,2.086,0.516,2.993c0.344,0.906,0.81,1.681,1.4,2.324
					c0.59,0.643,1.269,1.138,2.039,1.484c0.769,0.346,1.597,0.519,2.481,0.519c0.884,0,1.711-0.173,2.481-0.519
					c0.769-0.346,1.441-0.84,2.014-1.484c0.573-0.643,1.031-1.418,1.376-2.324c0.344-0.907,0.516-1.904,0.516-2.993V312.593z"/>
				<path fill="#FFFFFF" d="M317.52,318.169c0.523,1.065,1.195,1.965,2.014,2.702c0.819,0.737,1.736,1.294,2.751,1.67
					c1.015,0.377,2.079,0.565,3.193,0.565c1.769,0,3.283-0.327,4.544-0.983c1.26-0.655,2.415-1.523,3.463-2.604l2.358,2.112
					c-1.277,1.442-2.735,2.596-4.372,3.463c-1.638,0.867-3.668,1.302-6.091,1.302c-1.737,0-3.374-0.319-4.913-0.958
					c-1.54-0.638-2.886-1.539-4.04-2.702c-1.154-1.162-2.071-2.562-2.751-4.2c-0.68-1.637-1.02-3.439-1.02-5.404
					c0-1.834,0.302-3.562,0.909-5.183c0.605-1.621,1.449-3.029,2.53-4.225c1.081-1.195,2.366-2.137,3.856-2.825
					c1.49-0.688,3.119-1.032,4.888-1.032c1.867,0,3.537,0.352,5.011,1.056c1.474,0.705,2.718,1.663,3.733,2.874
					c1.015,1.212,1.785,2.637,2.309,4.274c0.523,1.638,0.786,3.39,0.786,5.257c0,0.164,0,0.344,0,0.54
					c0,0.197-0.017,0.41-0.049,0.639h-20.093C316.668,315.884,316.996,317.105,317.52,318.169z M332.798,311.709
					c-0.098-1.146-0.334-2.243-0.708-3.292c-0.375-1.048-0.895-1.965-1.562-2.751c-0.668-0.786-1.482-1.416-2.441-1.891
					c-0.961-0.474-2.076-0.712-3.346-0.712c-1.106,0-2.132,0.221-3.076,0.663c-0.944,0.442-1.774,1.048-2.49,1.818
					c-0.716,0.77-1.302,1.679-1.758,2.727c-0.456,1.048-0.749,2.195-0.879,3.439H332.798z"/>
				<path fill="#FFFFFF" d="M345.473,325.808h-3.783v-25.398h3.783v4.421c0.851-1.375,1.965-2.546,3.341-3.512
					c1.376-0.966,3.16-1.449,5.354-1.449c1.539,0,2.906,0.246,4.102,0.737c1.195,0.491,2.211,1.188,3.046,2.088
					c0.835,0.901,1.474,1.974,1.916,3.218c0.442,1.245,0.663,2.621,0.663,4.126v15.769h-3.783v-14.836
					c0-2.358-0.607-4.225-1.818-5.6c-1.212-1.376-2.947-2.063-5.207-2.063c-1.081,0-2.088,0.189-3.021,0.565
					c-0.933,0.377-1.744,0.917-2.432,1.621c-0.688,0.705-1.22,1.547-1.597,2.53c-0.377,0.982-0.565,2.063-0.565,3.242V325.808z"/>
				<path fill="#FFFFFF" d="M402.164,325.808v-14.653c0-1.764-0.377-3.096-1.13-3.994c-0.754-0.898-1.835-1.348-3.242-1.348
					c-1.409,0-2.514,0.45-3.316,1.348c-0.803,0.898-1.203,2.23-1.203,3.994v14.653h-7.467v-14.653c0-1.764-0.377-3.096-1.13-3.994
					c-0.754-0.898-1.835-1.348-3.243-1.348c-1.408,0-2.514,0.45-3.316,1.348c-0.803,0.898-1.203,2.23-1.203,3.994v14.653h-7.467
					v-26.332h7.467v3.764c0.425-0.56,0.892-1.097,1.4-1.608c0.507-0.511,1.072-0.964,1.695-1.36c0.621-0.396,1.318-0.709,2.088-0.94
					c0.769-0.231,1.629-0.347,2.579-0.347c1.735,0,3.234,0.363,4.495,1.088c1.26,0.726,2.235,1.765,2.923,3.117
					c1.146-1.385,2.424-2.433,3.832-3.142c1.408-0.709,3.013-1.064,4.814-1.064c2.783,0,4.962,0.819,6.534,2.456
					c1.572,1.638,2.358,4.045,2.358,7.221v17.145H402.164z"/>
				<path fill="#FFFFFF" d="M440.63,318.021c-0.721,1.654-1.719,3.103-2.997,4.348c-1.277,1.245-2.784,2.228-4.52,2.948
					c-1.736,0.72-3.635,1.081-5.699,1.081c-2.031,0-3.914-0.352-5.65-1.056c-1.736-0.704-3.234-1.67-4.495-2.899
					c-1.261-1.228-2.252-2.669-2.972-4.323c-0.721-1.653-1.081-3.43-1.081-5.33v-0.098c0-1.899,0.36-3.676,1.081-5.33
					c0.72-1.653,1.719-3.102,2.997-4.348c1.277-1.244,2.783-2.227,4.52-2.948c1.735-0.72,3.635-1.081,5.699-1.081
					c2.03,0,3.913,0.352,5.65,1.056c1.735,0.705,3.234,1.67,4.495,2.898c1.26,1.228,2.251,2.67,2.972,4.323
					c0.72,1.654,1.081,3.431,1.081,5.33v0.098C441.711,314.591,441.35,316.368,440.63,318.021z M434.342,312.691
					c0-0.982-0.164-1.907-0.491-2.776c-0.328-0.867-0.803-1.637-1.425-2.309c-0.622-0.671-1.359-1.204-2.211-1.597
					c-0.852-0.393-1.785-0.589-2.8-0.589c-1.081,0-2.039,0.189-2.874,0.565c-0.835,0.377-1.547,0.893-2.137,1.547
					c-0.59,0.656-1.04,1.417-1.351,2.284c-0.312,0.868-0.467,1.793-0.467,2.776v0.098c0,0.983,0.164,1.908,0.491,2.776
					c0.327,0.868,0.802,1.638,1.425,2.309c0.621,0.672,1.351,1.204,2.186,1.596c0.835,0.393,1.776,0.59,2.825,0.59
					c1.081,0,2.039-0.188,2.874-0.565c0.835-0.376,1.547-0.892,2.137-1.547c0.59-0.655,1.039-1.416,1.351-2.284
					c0.311-0.867,0.467-1.793,0.467-2.776V312.691z"/>
				<path fill="#FFFFFF" d="M460.279,326.004H453.5l-10.366-26.528h7.909l5.895,17.636l5.944-17.636h7.762L460.279,326.004z"/>
				<path fill="#FFFFFF" d="M473.494,296.578v-6.632h7.86v6.632H473.494z M473.69,325.808v-26.332h7.467v26.332H473.69z"/>
				<path fill="#FFFFFF" d="M519.279,325.808v-14.653c0-1.764-0.377-3.096-1.13-3.994c-0.754-0.898-1.834-1.348-3.242-1.348
					c-1.409,0-2.514,0.45-3.316,1.348c-0.803,0.898-1.204,2.23-1.204,3.994v14.653h-7.467v-14.653c0-1.764-0.377-3.096-1.13-3.994
					c-0.754-0.898-1.834-1.348-3.242-1.348c-1.409,0-2.514,0.45-3.316,1.348c-0.802,0.898-1.203,2.23-1.203,3.994v14.653h-7.467
					v-26.332h7.467v3.764c0.425-0.56,0.892-1.097,1.4-1.608c0.507-0.511,1.072-0.964,1.695-1.36c0.622-0.396,1.318-0.709,2.088-0.94
					c0.769-0.231,1.629-0.347,2.579-0.347c1.735,0,3.234,0.363,4.495,1.088c1.26,0.726,2.236,1.765,2.923,3.117
					c1.146-1.385,2.423-2.433,3.831-3.142c1.408-0.709,3.013-1.064,4.815-1.064c2.783,0,4.962,0.819,6.534,2.456
					c1.572,1.638,2.358,4.045,2.358,7.221v17.145H519.279z"/>
				<path fill="#FFFFFF" d="M531.756,296.578v-6.632h7.86v6.632H531.756z M531.953,325.808v-26.332h7.467v26.332H531.953z"/>
				<path fill="#FFFFFF" d="M569.362,314.312c-0.017,0.263-0.041,0.574-0.074,0.934h-18.324c0.36,1.703,1.105,2.989,2.235,3.856
					c1.13,0.868,2.53,1.302,4.2,1.302c1.244,0,2.358-0.213,3.341-0.638c0.983-0.425,1.997-1.113,3.046-2.063l4.274,3.783
					c-1.245,1.54-2.751,2.743-4.52,3.611c-1.768,0.867-3.848,1.302-6.239,1.302c-1.965,0-3.791-0.328-5.477-0.982
					c-1.687-0.655-3.144-1.588-4.372-2.8c-1.228-1.211-2.186-2.644-2.874-4.299c-0.688-1.653-1.031-3.496-1.031-5.527v-0.098
					c0-1.867,0.319-3.635,0.958-5.306c0.639-1.67,1.531-3.127,2.677-4.372c1.146-1.244,2.513-2.227,4.102-2.948
					c1.588-0.72,3.348-1.081,5.281-1.081c2.194,0,4.094,0.393,5.699,1.179c1.604,0.786,2.939,1.842,4.004,3.168
					c1.064,1.327,1.85,2.849,2.358,4.569c0.507,1.719,0.761,3.513,0.761,5.379v0.098C569.387,313.74,569.378,314.05,569.362,314.312
					z M560.348,306.526c-0.95-1.032-2.211-1.548-3.783-1.548c-1.572,0-2.841,0.508-3.807,1.523
					c-0.966,1.016-1.597,2.375-1.891,4.077h11.25C561.887,308.908,561.297,307.557,560.348,306.526z"/>
				<path fill="#FFFFFF" d="M589.97,325.808v-14.653c0-1.764-0.393-3.096-1.179-3.994c-0.786-0.898-1.9-1.348-3.34-1.348
					c-1.442,0-2.579,0.45-3.414,1.348c-0.835,0.898-1.253,2.23-1.253,3.994v14.653h-7.467v-26.332h7.467v3.764
					c0.425-0.56,0.892-1.097,1.4-1.608c0.507-0.511,1.073-0.964,1.695-1.36c0.622-0.396,1.31-0.709,2.063-0.94
					c0.753-0.231,1.604-0.347,2.554-0.347c2.849,0,5.052,0.868,6.607,2.604c1.555,1.736,2.334,4.126,2.334,7.172v17.047H589.97z"/>
				<path fill="#FFFFFF" d="M614.483,325.832c-0.95,0.278-2.047,0.418-3.292,0.418c-1.147,0-2.186-0.123-3.119-0.369
					c-0.933-0.246-1.736-0.679-2.407-1.302c-0.672-0.622-1.196-1.432-1.572-2.432c-0.377-0.999-0.565-2.267-0.565-3.807v-12.478
					h-3.144v-6.386h3.144v-6.73h7.467v6.73h6.19v6.386h-6.19v11.25c0,1.703,0.802,2.555,2.407,2.555c1.31,0,2.538-0.311,3.684-0.933
					v5.993C616.301,325.186,615.432,325.554,614.483,325.832z"/>
				<path fill="#FFFFFF" d="M647.201,318.021c-0.721,1.654-1.719,3.103-2.997,4.348c-1.277,1.245-2.784,2.228-4.52,2.948
					c-1.736,0.72-3.635,1.081-5.699,1.081c-2.031,0-3.914-0.352-5.65-1.056c-1.736-0.704-3.234-1.67-4.495-2.899
					c-1.261-1.228-2.252-2.669-2.972-4.323c-0.721-1.653-1.081-3.43-1.081-5.33v-0.098c0-1.899,0.36-3.676,1.081-5.33
					c0.72-1.653,1.719-3.102,2.997-4.348c1.277-1.244,2.783-2.227,4.52-2.948c1.735-0.72,3.635-1.081,5.698-1.081
					c2.03,0,3.913,0.352,5.65,1.056c1.735,0.705,3.234,1.67,4.495,2.898c1.26,1.228,2.251,2.67,2.972,4.323
					c0.72,1.654,1.081,3.431,1.081,5.33v0.098C648.282,314.591,647.921,316.368,647.201,318.021z M640.913,312.691
					c0-0.982-0.164-1.907-0.491-2.776c-0.328-0.867-0.803-1.637-1.425-2.309c-0.622-0.671-1.359-1.204-2.211-1.597
					c-0.852-0.393-1.785-0.589-2.8-0.589c-1.081,0-2.039,0.189-2.874,0.565c-0.835,0.377-1.547,0.893-2.137,1.547
					c-0.59,0.656-1.04,1.417-1.351,2.284c-0.312,0.868-0.467,1.793-0.467,2.776v0.098c0,0.983,0.164,1.908,0.491,2.776
					c0.327,0.868,0.802,1.638,1.425,2.309c0.622,0.672,1.351,1.204,2.186,1.596c0.835,0.393,1.776,0.59,2.825,0.59
					c1.081,0,2.039-0.188,2.874-0.565c0.835-0.376,1.547-0.892,2.137-1.547c0.59-0.655,1.039-1.416,1.351-2.284
					c0.311-0.867,0.467-1.793,0.467-2.776V312.691z"/>
			</g>
			<g>
				<path fill="#808080" d="M52.846,560.743c-2.204,0.958-4.725,1.438-7.565,1.438c-2.426,0-4.636-0.398-6.633-1.195
					c-1.997-0.796-3.712-1.903-5.147-3.319c-1.435-1.416-2.551-3.098-3.35-5.045c-0.799-1.947-1.198-4.071-1.198-6.372v-0.088
					c0-2.212,0.407-4.285,1.22-6.217c0.814-1.932,1.945-3.629,3.394-5.089c1.449-1.46,3.165-2.611,5.147-3.452
					c1.981-0.841,4.155-1.261,6.522-1.261c1.39,0,2.654,0.096,3.793,0.288c1.138,0.192,2.196,0.464,3.172,0.819
					c0.976,0.354,1.893,0.796,2.751,1.328c0.858,0.531,1.686,1.136,2.485,1.814l-4.304,5.178c-0.592-0.502-1.183-0.944-1.775-1.328
					c-0.592-0.383-1.205-0.708-1.841-0.974c-0.636-0.265-1.324-0.472-2.063-0.62c-0.739-0.147-1.553-0.221-2.44-0.221
					c-1.242,0-2.404,0.259-3.483,0.777c-1.08,0.517-2.026,1.212-2.839,2.084c-0.814,0.873-1.45,1.893-1.908,3.061
					c-0.459,1.168-0.688,2.417-0.688,3.747v0.088c0,1.42,0.229,2.728,0.688,3.925c0.458,1.197,1.109,2.24,1.952,3.127
					c0.843,0.887,1.834,1.574,2.973,2.063c1.138,0.488,2.403,0.731,3.793,0.731c2.544,0,4.688-0.624,6.434-1.872v-4.456H45.06
					v-5.886h13.488v13.453C56.95,558.626,55.049,559.785,52.846,560.743z"/>
				<path fill="#808080" d="M92.445,552.38c-0.828,1.932-1.974,3.628-3.438,5.089c-1.464,1.46-3.21,2.611-5.236,3.451
					c-2.026,0.841-4.237,1.261-6.633,1.261c-2.396,0-4.6-0.42-6.611-1.261c-2.012-0.841-3.749-1.976-5.213-3.407
					c-1.464-1.43-2.603-3.112-3.416-5.044c-0.814-1.932-1.22-4.005-1.22-6.218v-0.088c0-2.212,0.414-4.285,1.242-6.217
					c0.828-1.932,1.974-3.629,3.439-5.089c1.464-1.46,3.209-2.611,5.235-3.452c2.025-0.841,4.237-1.261,6.633-1.261
					c2.396,0,4.599,0.42,6.611,1.261c2.011,0.841,3.749,1.977,5.213,3.407c1.464,1.431,2.603,3.113,3.416,5.045
					c0.813,1.932,1.22,4.005,1.22,6.217v0.088C93.687,548.375,93.272,550.448,92.445,552.38z M86.543,546.162
					c0-1.328-0.229-2.581-0.688-3.761c-0.459-1.18-1.109-2.212-1.952-3.098c-0.843-0.885-1.841-1.585-2.995-2.102
					c-1.153-0.516-2.411-0.775-3.771-0.775c-1.391,0-2.655,0.251-3.793,0.752c-1.139,0.502-2.115,1.195-2.928,2.08
					c-0.814,0.885-1.45,1.91-1.908,3.076c-0.459,1.166-0.688,2.411-0.688,3.739v0.088c0,1.328,0.229,2.582,0.688,3.761
					c0.458,1.181,1.109,2.213,1.952,3.098c0.843,0.885,1.834,1.586,2.973,2.102c1.138,0.517,2.403,0.774,3.793,0.774
					c1.36,0,2.618-0.25,3.771-0.752c1.154-0.502,2.137-1.195,2.951-2.08c0.813-0.885,1.449-1.91,1.908-3.076
					c0.458-1.165,0.688-2.412,0.688-3.739V546.162z"/>
				<path fill="#808080" d="M122.239,556.871c-0.546,1.062-1.329,1.947-2.348,2.655c-1.019,0.708-2.244,1.239-3.676,1.593
					c-1.432,0.354-3.019,0.531-4.761,0.531h-14.75v-30.976h14.394c3.188,0,5.69,0.723,7.506,2.168
					c1.816,1.446,2.724,3.393,2.724,5.841v0.088c0,0.885-0.111,1.667-0.331,2.345c-0.22,0.679-0.514,1.291-0.882,1.837
					c-0.367,0.546-0.793,1.025-1.278,1.438c-0.485,0.414-1.006,0.768-1.564,1.062c1.795,0.679,3.209,1.601,4.24,2.766
					c1.03,1.166,1.546,2.781,1.546,4.846v0.088C123.058,554.57,122.785,555.809,122.239,556.871z M114.584,539.834
					c0-1.032-0.385-1.821-1.153-2.367c-0.77-0.546-1.879-0.819-3.328-0.819h-6.744v6.549h6.3c1.509,0,2.707-0.258,3.594-0.774
					c0.888-0.516,1.331-1.35,1.331-2.5V539.834z M116.314,552.225c0-1.032-0.4-1.851-1.198-2.456
					c-0.799-0.604-2.085-0.907-3.86-0.907h-7.897v6.815h8.119c1.508,0,2.691-0.272,3.549-0.819c0.858-0.545,1.287-1.394,1.287-2.544
					V552.225z"/>
				<path fill="#808080" d="M125.986,561.65v-30.976h6.832v30.976H125.986z"/>
				<path fill="#808080" d="M137.521,561.65v-30.976h23.382v6.062h-16.638v6.284h14.642v6.062h-14.642v6.505h16.86v6.062H137.521z"
					/>
				<path fill="#808080" d="M183.043,561.65l-6.655-9.912h-5.369v9.912h-6.833v-30.976h14.198c3.697,0,6.573,0.9,8.63,2.699
					c2.055,1.8,3.084,4.308,3.084,7.523v0.088c0,2.508-0.614,4.551-1.841,6.129c-1.228,1.578-2.833,2.737-4.814,3.474l7.587,11.063
					H183.043z M183.176,541.25c0-1.475-0.474-2.581-1.42-3.319c-0.947-0.737-2.263-1.107-3.949-1.107h-6.788v8.895h6.922
					c1.686,0,2.98-0.399,3.882-1.195c0.902-0.796,1.353-1.859,1.353-3.186V541.25z"/>
				<path fill="#808080" d="M214.988,561.65l-15.041-19.692v19.692h-6.744v-30.976h6.3l14.553,19.072v-19.072h6.744v30.976H214.988z
					"/>
				<path fill="#808080" d="M255.584,552.38c-0.828,1.932-1.974,3.628-3.438,5.089c-1.464,1.46-3.21,2.611-5.236,3.451
					c-2.026,0.841-4.237,1.261-6.633,1.261c-2.396,0-4.6-0.42-6.611-1.261c-2.012-0.841-3.749-1.976-5.213-3.407
					c-1.464-1.43-2.603-3.112-3.416-5.044c-0.814-1.932-1.22-4.005-1.22-6.218v-0.088c0-2.212,0.414-4.285,1.242-6.217
					c0.828-1.932,1.974-3.629,3.439-5.089c1.464-1.46,3.209-2.611,5.235-3.452c2.025-0.841,4.237-1.261,6.633-1.261
					c2.396,0,4.599,0.42,6.611,1.261c2.011,0.841,3.749,1.977,5.213,3.407c1.464,1.431,2.603,3.113,3.416,5.045
					c0.813,1.932,1.22,4.005,1.22,6.217v0.088C256.826,548.375,256.412,550.448,255.584,552.38z M249.683,546.162
					c0-1.328-0.229-2.581-0.688-3.761c-0.459-1.18-1.109-2.212-1.952-3.098c-0.843-0.885-1.841-1.585-2.995-2.102
					c-1.153-0.516-2.411-0.775-3.771-0.775c-1.391,0-2.655,0.251-3.793,0.752c-1.139,0.502-2.115,1.195-2.928,2.08
					c-0.814,0.885-1.45,1.91-1.908,3.076c-0.459,1.166-0.688,2.411-0.688,3.739v0.088c0,1.328,0.229,2.582,0.688,3.761
					c0.458,1.181,1.109,2.213,1.952,3.098c0.843,0.885,1.834,1.586,2.973,2.102c1.138,0.517,2.403,0.774,3.793,0.774
					c1.36,0,2.618-0.25,3.771-0.752c1.154-0.502,2.137-1.195,2.951-2.08c0.813-0.885,1.449-1.91,1.908-3.076
					c0.458-1.165,0.688-2.412,0.688-3.739V546.162z"/>
				<path fill="#808080" d="M293.207,561.65l-2.839-6.947h-13.133l-2.839,6.947h-6.966l13.311-31.197h6.3l13.311,31.197H293.207z
					 M283.801,538.64l-4.126,10.045h8.253L283.801,538.64z"/>
				<path fill="#808080" d="M327.703,554.305c-0.637,1.741-1.546,3.193-2.728,4.359c-1.184,1.166-2.618,2.036-4.304,2.611
					c-1.686,0.575-3.565,0.863-5.635,0.863c-4.17,0-7.454-1.151-9.85-3.451c-2.396-2.301-3.594-5.737-3.594-10.31v-17.701h6.833
					v17.523c0,2.538,0.591,4.447,1.774,5.731c1.183,1.283,2.824,1.925,4.925,1.925c2.1,0,3.742-0.62,4.925-1.859
					c1.182-1.239,1.774-3.098,1.774-5.576v-17.745h6.833v17.479C328.657,550.514,328.339,552.564,327.703,554.305z"/>
				<path fill="#808080" d="M346.626,536.958v24.692h-6.833v-24.692h-9.45v-6.284h25.734v6.284H346.626z"/>
				<path fill="#808080" d="M388.642,552.38c-0.829,1.932-1.974,3.628-3.439,5.089c-1.464,1.46-3.21,2.611-5.235,3.451
					c-2.026,0.841-4.237,1.261-6.633,1.261c-2.396,0-4.6-0.42-6.611-1.261c-2.012-0.841-3.749-1.976-5.213-3.407
					c-1.464-1.43-2.603-3.112-3.416-5.044c-0.814-1.932-1.22-4.005-1.22-6.218v-0.088c0-2.212,0.414-4.285,1.242-6.217
					c0.828-1.932,1.974-3.629,3.438-5.089c1.464-1.46,3.209-2.611,5.235-3.452c2.026-0.841,4.237-1.261,6.633-1.261
					c2.396,0,4.599,0.42,6.611,1.261c2.011,0.841,3.749,1.977,5.214,3.407c1.464,1.431,2.602,3.113,3.416,5.045
					c0.814,1.932,1.22,4.005,1.22,6.217v0.088C389.884,548.375,389.47,550.448,388.642,552.38z M382.741,546.162
					c0-1.328-0.23-2.581-0.688-3.761c-0.459-1.18-1.11-2.212-1.952-3.098c-0.843-0.885-1.841-1.585-2.995-2.102
					c-1.154-0.516-2.411-0.775-3.771-0.775c-1.391,0-2.655,0.251-3.793,0.752c-1.139,0.502-2.115,1.195-2.928,2.08
					c-0.814,0.885-1.45,1.91-1.908,3.076c-0.459,1.166-0.688,2.411-0.688,3.739v0.088c0,1.328,0.229,2.582,0.688,3.761
					c0.458,1.181,1.109,2.213,1.952,3.098c0.843,0.885,1.834,1.586,2.973,2.102c1.138,0.517,2.402,0.774,3.793,0.774
					c1.36,0,2.618-0.25,3.771-0.752c1.154-0.502,2.136-1.195,2.95-2.08c0.813-0.885,1.449-1.91,1.908-3.076
					c0.458-1.165,0.688-2.412,0.688-3.739V546.162z M370.983,528.24l5.014-7.832l5.812,2.522l-5.679,5.31H370.983z"/>
				<path fill="#808080" d="M414.686,561.65l-15.041-19.692v19.692h-6.744v-30.976h6.3l14.553,19.072v-19.072h6.744v30.976H414.686z
					"/>
				<path fill="#808080" d="M455.282,552.38c-0.829,1.932-1.974,3.628-3.439,5.089c-1.464,1.46-3.21,2.611-5.235,3.451
					c-2.026,0.841-4.237,1.261-6.633,1.261c-2.396,0-4.6-0.42-6.611-1.261c-2.012-0.841-3.749-1.976-5.213-3.407
					c-1.464-1.43-2.603-3.112-3.416-5.044c-0.814-1.932-1.22-4.005-1.22-6.218v-0.088c0-2.212,0.414-4.285,1.242-6.217
					c0.828-1.932,1.974-3.629,3.439-5.089c1.464-1.46,3.209-2.611,5.235-3.452c2.025-0.841,4.237-1.261,6.633-1.261
					c2.396,0,4.599,0.42,6.611,1.261c2.011,0.841,3.749,1.977,5.213,3.407c1.464,1.431,2.603,3.113,3.416,5.045
					c0.813,1.932,1.22,4.005,1.22,6.217v0.088C456.525,548.375,456.11,550.448,455.282,552.38z M449.381,546.162
					c0-1.328-0.229-2.581-0.688-3.761c-0.459-1.18-1.109-2.212-1.952-3.098c-0.843-0.885-1.841-1.585-2.995-2.102
					c-1.154-0.516-2.411-0.775-3.771-0.775c-1.391,0-2.655,0.251-3.793,0.752c-1.139,0.502-2.115,1.195-2.928,2.08
					c-0.814,0.885-1.45,1.91-1.908,3.076c-0.459,1.166-0.688,2.411-0.688,3.739v0.088c0,1.328,0.229,2.582,0.688,3.761
					c0.458,1.181,1.109,2.213,1.952,3.098c0.843,0.885,1.834,1.586,2.973,2.102c1.138,0.517,2.403,0.774,3.793,0.774
					c1.36,0,2.618-0.25,3.771-0.752c1.154-0.502,2.137-1.195,2.951-2.08c0.813-0.885,1.449-1.91,1.908-3.076
					c0.458-1.165,0.688-2.412,0.688-3.739V546.162z"/>
				<path fill="#808080" d="M483.855,561.65v-20.223l-8.741,13.231h-0.177l-8.652-13.098v20.09h-6.744v-30.976h7.365l8.164,13.099
					l8.164-13.099h7.365v30.976H483.855z"/>
				<path fill="#808080" d="M525.384,552.38c-0.828,1.932-1.974,3.628-3.439,5.089c-1.464,1.46-3.21,2.611-5.235,3.451
					c-2.026,0.841-4.237,1.261-6.633,1.261s-4.6-0.42-6.611-1.261c-2.012-0.841-3.749-1.976-5.213-3.407
					c-1.464-1.43-2.603-3.112-3.416-5.044c-0.814-1.932-1.22-4.005-1.22-6.218v-0.088c0-2.212,0.414-4.285,1.242-6.217
					c0.828-1.932,1.974-3.629,3.439-5.089c1.464-1.46,3.209-2.611,5.235-3.452c2.025-0.841,4.237-1.261,6.633-1.261
					s4.599,0.42,6.611,1.261c2.011,0.841,3.749,1.977,5.213,3.407c1.464,1.431,2.602,3.113,3.416,5.045
					c0.813,1.932,1.22,4.005,1.22,6.217v0.088C526.626,548.375,526.211,550.448,525.384,552.38z M519.482,546.162
					c0-1.328-0.229-2.581-0.688-3.761c-0.459-1.18-1.109-2.212-1.952-3.098c-0.843-0.885-1.841-1.585-2.995-2.102
					c-1.154-0.516-2.411-0.775-3.771-0.775c-1.391,0-2.655,0.251-3.793,0.752c-1.139,0.502-2.115,1.195-2.928,2.08
					c-0.814,0.885-1.45,1.91-1.908,3.076c-0.459,1.166-0.688,2.411-0.688,3.739v0.088c0,1.328,0.229,2.582,0.688,3.761
					c0.458,1.181,1.109,2.213,1.952,3.098c0.843,0.885,1.834,1.586,2.973,2.102c1.138,0.517,2.403,0.774,3.793,0.774
					c1.36,0,2.617-0.25,3.771-0.752c1.154-0.502,2.137-1.195,2.951-2.08c0.813-0.885,1.449-1.91,1.908-3.076
					c0.458-1.165,0.688-2.412,0.688-3.739V546.162z"/>
				<path fill="#808080" d="M564.205,561.65v-20.223l-8.741,13.231h-0.177l-8.652-13.098v20.09h-6.744v-30.976h7.365l8.164,13.099
					l8.164-13.099h7.365v30.976H564.205z"/>
				<path fill="#808080" d="M600.963,554.305c-0.636,1.741-1.546,3.193-2.728,4.359c-1.184,1.166-2.618,2.036-4.304,2.611
					c-1.686,0.575-3.565,0.863-5.635,0.863c-4.171,0-7.454-1.151-9.85-3.451c-2.396-2.301-3.594-5.737-3.594-10.31v-17.701h6.833
					v17.523c0,2.538,0.591,4.447,1.775,5.731c1.182,1.283,2.824,1.925,4.925,1.925c2.1,0,3.741-0.62,4.925-1.859
					c1.182-1.239,1.774-3.098,1.774-5.576v-17.745h6.833v17.479C601.917,550.514,601.599,552.564,600.963,554.305z"/>
				<path fill="#808080" d="M627.606,561.65l-15.041-19.692v19.692h-6.744v-30.976h6.3l14.553,19.072v-19.072h6.744v30.976H627.606z
					"/>
				<path fill="#808080" d="M638.121,561.65v-30.976h6.832v30.976H638.121z"/>
				<path fill="#808080" d="M674.459,558.951c-0.858,0.679-1.797,1.261-2.817,1.748c-1.02,0.487-2.137,0.856-3.35,1.106
					c-1.213,0.25-2.573,0.376-4.082,0.376c-2.278,0-4.392-0.414-6.345-1.239s-3.638-1.954-5.058-3.385
					c-1.42-1.43-2.529-3.12-3.328-5.067c-0.799-1.947-1.198-4.027-1.198-6.239v-0.088c0-2.212,0.399-4.285,1.198-6.217
					c0.799-1.932,1.908-3.629,3.328-5.089c1.42-1.46,3.12-2.611,5.102-3.452c1.981-0.841,4.171-1.261,6.566-1.261
					c1.449,0,2.773,0.118,3.971,0.354c1.198,0.237,2.285,0.561,3.261,0.974c0.976,0.413,1.878,0.915,2.707,1.504
					c0.828,0.59,1.597,1.239,2.307,1.947l-4.348,5c-1.213-1.091-2.448-1.947-3.705-2.567c-1.258-0.62-2.67-0.929-4.237-0.929
					c-1.302,0-2.507,0.251-3.616,0.752c-1.109,0.502-2.063,1.195-2.862,2.08c-0.799,0.885-1.42,1.91-1.864,3.076
					c-0.444,1.166-0.665,2.411-0.665,3.739v0.088c0,1.328,0.221,2.582,0.665,3.761c0.444,1.181,1.057,2.213,1.841,3.098
					c0.784,0.885,1.73,1.586,2.839,2.102c1.11,0.517,2.33,0.774,3.661,0.774c1.775,0,3.276-0.324,4.503-0.973
					c1.227-0.649,2.447-1.534,3.66-2.655l4.348,4.381C676.145,557.506,675.316,558.273,674.459,558.951z"/>
				<path fill="#808080" d="M679.65,561.65v-30.976h6.832v30.976H679.65z"/>
				<path fill="#808080" d="M714.789,546.207c-0.651,1.357-1.546,2.493-2.684,3.407c-1.139,0.914-2.47,1.601-3.993,2.057
					c-1.524,0.458-3.158,0.686-4.903,0.686h-5.191v9.293h-6.832v-30.976h12.689c1.864,0,3.527,0.259,4.992,0.775
					c1.464,0.517,2.706,1.247,3.727,2.19c1.02,0.945,1.804,2.073,2.351,3.385c0.547,1.313,0.821,2.766,0.821,4.359v0.088
					C715.765,543.271,715.439,544.85,714.789,546.207z M708.843,541.516c0-1.534-0.496-2.699-1.487-3.496
					c-0.991-0.797-2.345-1.195-4.06-1.195h-5.28v9.47h5.413c1.715,0,3.046-0.45,3.994-1.35c0.946-0.899,1.42-2.013,1.42-3.341
					V541.516z"/>
				<path fill="#808080" d="M740.877,561.65l-2.84-6.947h-13.133l-2.839,6.947h-6.966l13.31-31.197h6.3l13.31,31.197H740.877z
					 M731.471,538.64l-4.126,10.045h8.253L731.471,538.64z"/>
				<path fill="#808080" d="M749.75,561.65v-30.976h6.833v24.825h15.484v6.151H749.75z"/>
			</g>
		</g>
	</g>
</g>
</svg>
