<?xml version="1.0" encoding="utf-8"?>
<!-- Generator: Adobe Illustrator 21.0.2, SVG Export Plug-In . SVG Version: 6.00 Build 0)  -->
<svg version="1.1" id="Layer_1" xmlns="http://www.w3.org/2000/svg" xmlns:xlink="http://www.w3.org/1999/xlink" x="0px" y="0px"
	 viewBox="0 0 623.6 170.1" style="enable-background:new 0 0 623.6 170.1;" xml:space="preserve">
<style type="text/css">
	.st0{fill:#030405;}
	.st1{fill:#DA291C;}
</style>
<g>
	<g id="save-the-children-name-outline">
		<path class="st0" d="M191.8,74.4c-0.2,0.4-0.5,0.7-0.8,1c-0.3,0.2-0.7,0.3-1.1,0.3c-0.5,0-0.9-0.1-1.3-0.4c-0.5-0.3-1-0.5-1.6-0.9
			c-0.7-0.3-1.3-0.6-2-0.9c-0.8-0.3-1.7-0.4-2.6-0.4c-1.4-0.1-2.7,0.3-3.8,1.1c-0.8,0.7-1.3,1.8-1.2,2.9c0,0.7,0.2,1.4,0.8,2
			s1.2,1,2,1.3c0.9,0.4,1.8,0.8,2.8,1c1,0.3,2.1,0.7,3.2,1c1.1,0.4,2.2,0.8,3.2,1.4c1,0.5,2,1.2,2.8,2s1.5,1.8,2,2.9
			c0.5,1.3,0.8,2.7,0.8,4.2c0,1.7-0.3,3.4-0.9,5.1c-0.6,1.5-1.5,2.9-2.7,4.1c-1.3,1.2-2.8,2.2-4.4,2.8c-1.9,0.7-3.9,1-5.9,1
			c-1.2,0-2.5-0.1-3.7-0.4c-1.2-0.2-2.5-0.6-3.7-1.1c-1.2-0.4-2.3-1-3.3-1.6s-1.9-1.3-2.7-2.1l2.7-4.2c0.2-0.3,0.5-0.6,0.8-0.8
			c0.4-0.2,0.7-0.3,1.2-0.3c0.6,0,1.1,0.2,1.6,0.5s1.2,0.7,1.8,1.1c0.8,0.4,1.5,0.8,2.4,1.1c1,0.4,2.1,0.5,3.2,0.5
			c1.4,0.1,2.7-0.3,3.8-1.1c1-0.9,1.5-2.1,1.4-3.4c0-0.8-0.2-1.6-0.8-2.2c-0.5-0.6-1.2-1.1-2-1.4c-0.9-0.4-1.8-0.7-2.8-1
			s-2.1-0.6-3.2-0.9c-1.1-0.4-2.2-0.8-3.2-1.3s-2-1.2-2.8-2c-0.9-0.9-1.5-2-2-3.1c-0.5-1.5-0.8-3-0.8-4.6c0-1.5,0.3-2.9,0.9-4.3
			c0.6-1.4,1.5-2.7,2.6-3.7c1.2-1.1,2.6-2,4.2-2.6c1.8-0.7,3.8-1,5.7-1c1.2,0,2.3,0.1,3.5,0.3c1.1,0.2,2.2,0.5,3.2,0.8
			c1,0.4,1.9,0.8,2.9,1.3c0.9,0.5,1.6,1.1,2.4,1.7L191.8,74.4z"/>
		<path class="st0" d="M217.9,105.5c-0.6,0-1.2-0.1-1.7-0.3c-0.5-0.3-0.8-0.8-1-1.3l-0.6-1.5c-0.7,0.6-1.3,1.1-1.9,1.5
			c-0.6,0.4-1.3,0.8-1.9,1.1c-0.7,0.3-1.4,0.5-2.1,0.7c-0.8,0.2-1.7,0.2-2.5,0.2c-1.1,0-2.3-0.1-3.4-0.5c-0.9-0.3-1.8-0.8-2.6-1.4
			c-0.7-0.6-1.3-1.4-1.6-2.3c-0.4-1-0.6-2.1-0.6-3.2c0-1,0.3-2,0.7-2.9c0.6-1.1,1.5-2.1,2.5-2.8c1.5-1,3.1-1.7,4.8-2.1
			c2.5-0.6,5.1-0.9,7.7-0.8v-1.2c0.1-1.2-0.2-2.5-1-3.5c-0.7-0.7-1.7-1.1-2.8-1.1c-0.8,0-1.6,0.1-2.3,0.3c-0.6,0.2-1.1,0.4-1.6,0.7
			c-0.5,0.3-0.9,0.5-1.4,0.7s-1.1,0.3-1.6,0.3s-1-0.1-1.4-0.4s-0.7-0.6-0.9-1l-1.5-2.5c1.6-1.4,3.4-2.5,5.4-3.2
			c2.1-0.7,4.2-1.1,6.4-1.1c1.5,0,3,0.2,4.4,0.8c1.3,0.5,2.4,1.2,3.3,2.2c0.9,1,1.6,2.1,2.1,3.4c0.5,1.4,0.7,2.8,0.7,4.3v16.8h-3.6
			V105.5z M208.6,100.6c0.9,0,1.9-0.2,2.7-0.5c0.9-0.4,1.7-1,2.4-1.8v-3.7c-1.3,0-2.7,0.1-4,0.3c-0.9,0.1-1.7,0.4-2.5,0.8
			c-0.5,0.2-1,0.6-1.3,1.1c-0.2,0.4-0.4,0.8-0.4,1.3c-0.1,0.7,0.2,1.5,0.8,2C207,100.5,207.8,100.7,208.6,100.6z"/>
		<path class="st0" d="M241.5,105.5h-7.3l-10.5-27h6.7c0.5,0,1,0.1,1.4,0.4c0.4,0.2,0.6,0.6,0.8,1l3.7,12.1c0.3,1,0.6,1.9,0.8,2.9
			s0.5,1.9,0.7,2.8c0.2-0.9,0.4-1.9,0.7-2.8s0.6-1.9,0.9-2.9l3.9-12.1c0.1-0.4,0.4-0.8,0.8-1c0.4-0.3,0.9-0.4,1.4-0.4h6.4
			L241.5,105.5z"/>
		<path class="st0" d="M266.2,78.1c1.7,0,3.3,0.3,4.9,0.8c1.4,0.5,2.7,1.3,3.8,2.4s2,2.4,2.5,3.9c0.6,1.7,0.9,3.4,0.9,5.2
			c0,0.5,0,1-0.1,1.5c0,0.3-0.1,0.6-0.3,0.9c-0.1,0.2-0.3,0.4-0.6,0.5c-0.3,0.1-0.6,0.1-0.9,0.1h-15.6c0.1,1.8,0.8,3.6,2.1,4.9
			c1.2,1,2.7,1.6,4.3,1.5c0.8,0,1.6-0.1,2.4-0.3c0.6-0.2,1.2-0.5,1.8-0.8c0.5-0.3,1-0.5,1.5-0.8c0.4-0.2,0.9-0.3,1.4-0.3
			c0.6,0,1.1,0.2,1.5,0.7l2.3,2.9c-0.8,0.9-1.7,1.7-2.7,2.3c-0.9,0.6-1.9,1.1-3,1.4c-1,0.3-2,0.6-3,0.7s-1.9,0.2-2.9,0.2
			c-1.8,0-3.6-0.3-5.3-0.9c-1.6-0.6-3.1-1.5-4.3-2.7c-1.3-1.3-2.3-2.8-2.9-4.5c-0.8-2-1.1-4.1-1.1-6.3c0-1.7,0.3-3.5,0.9-5.1
			c1.2-3.2,3.7-5.8,6.8-7.1C262.4,78.5,264.3,78.1,266.2,78.1z M266.4,83.7c-1.3-0.1-2.6,0.4-3.6,1.3c-1,1.1-1.6,2.4-1.7,3.8h10.1
			c0-0.6-0.1-1.3-0.2-1.9c-0.2-0.6-0.4-1.1-0.8-1.6s-0.9-0.9-1.5-1.2C267.9,83.8,267.1,83.7,266.4,83.7L266.4,83.7z"/>
		<path class="st0" d="M303.2,105.9c-1.2,0-2.3-0.2-3.4-0.6c-1.9-0.7-3.4-2.2-4-4.1c-0.4-1-0.5-2.1-0.5-3.2V84.1H293
			c-0.8,0-1.5-0.6-1.5-1.4c0-0.1,0-0.1,0-0.2v-3.1l4.3-0.8l1.6-6.6c0.2-0.8,0.9-1.4,1.8-1.2h4.2v7.9h6.6v5.5h-6.6v13.4
			c0,0.6,0.1,1.1,0.5,1.5c0.3,0.4,0.8,0.6,1.3,0.6c0.3,0,0.5,0,0.7-0.1s0.4-0.1,0.5-0.2s0.3-0.1,0.4-0.2s0.3-0.1,0.5-0.1
			s0.4,0,0.6,0.2s0.3,0.3,0.5,0.5l2.4,3.8c-1.1,0.8-2.2,1.4-3.5,1.8C306,105.7,304.6,105.9,303.2,105.9z"/>
		<path class="st0" d="M314.5,105.5V66.6h8.1v14.3c1-0.8,2-1.5,3.2-2c1.3-0.5,2.7-0.8,4.1-0.8c1.3,0,2.7,0.2,3.9,0.8
			c1.1,0.5,2.1,1.2,2.9,2.1c0.8,1,1.4,2.1,1.8,3.2c0.4,1.3,0.6,2.7,0.6,4.1v17.1H331v-17c0.1-1.1-0.3-2.2-0.9-3.1
			c-0.7-0.8-1.7-1.2-2.7-1.1c-0.9,0-1.7,0.2-2.5,0.6s-1.6,0.9-2.2,1.5v19.2C322.7,105.5,314.5,105.5,314.5,105.5z"/>
		<path class="st0" d="M356.4,78.1c1.7,0,3.3,0.3,4.9,0.8c1.4,0.5,2.7,1.3,3.8,2.4c1.1,1.1,2,2.4,2.5,3.9c0.6,1.7,0.9,3.4,0.9,5.2
			c0,0.5,0,1-0.1,1.5c0,0.3-0.1,0.6-0.3,0.9c-0.1,0.2-0.3,0.4-0.6,0.5c-0.3,0.1-0.6,0.1-0.9,0.1h-15.5c0.1,1.8,0.8,3.6,2.1,4.9
			c1.2,1,2.7,1.6,4.3,1.5c0.8,0,1.6-0.1,2.4-0.3c0.6-0.2,1.2-0.5,1.8-0.8c0.5-0.3,1-0.5,1.5-0.8c0.4-0.2,0.9-0.3,1.4-0.3
			c0.6,0,1.1,0.2,1.5,0.7l2.3,2.9c-0.8,0.9-1.7,1.7-2.7,2.3c-0.9,0.6-1.9,1.1-3,1.4c-1,0.3-2,0.6-3,0.7s-1.9,0.2-2.9,0.2
			c-1.8,0-3.6-0.3-5.3-0.9c-1.6-0.6-3.1-1.5-4.3-2.7c-1.3-1.3-2.3-2.8-2.9-4.5c-0.8-2-1.1-4.1-1.1-6.3c0-1.7,0.3-3.5,0.9-5.1
			c1.2-3.2,3.7-5.8,6.8-7.1C352.6,78.5,354.5,78.1,356.4,78.1z M356.6,83.7c-1.3-0.1-2.6,0.4-3.6,1.3c-1,1.1-1.6,2.4-1.7,3.8h10.1
			c0-0.6-0.1-1.3-0.2-1.9c-0.2-0.6-0.4-1.1-0.8-1.6s-0.9-0.9-1.5-1.2C358.1,83.8,357.4,83.7,356.6,83.7z"/>
		<path class="st0" d="M410.6,95.4c0.2,0,0.4,0,0.6,0.1s0.4,0.2,0.6,0.4l3.6,3.8c-1.5,2-3.6,3.6-5.9,4.6c-2.7,1.1-5.5,1.6-8.4,1.6
			c-2.7,0-5.4-0.5-8-1.5c-2.3-1-4.3-2.4-6-4.2c-1.7-1.8-2.9-4-3.8-6.3c-0.9-2.6-1.3-5.2-1.3-7.9c0-2.7,0.5-5.5,1.5-8
			c1-2.4,2.4-4.5,4.2-6.3c1.8-1.8,4-3.2,6.4-4.1c2.6-1,5.4-1.5,8.3-1.5c1.4,0,2.8,0.1,4.1,0.4c1.2,0.2,2.5,0.6,3.6,1.1
			c1.1,0.4,2.1,1,3.1,1.6c0.9,0.6,1.8,1.3,2.5,2.1l-3.1,4.1c-0.2,0.3-0.4,0.5-0.7,0.7c-0.3,0.2-0.7,0.3-1.1,0.3
			c-0.3,0-0.6-0.1-0.9-0.2c-0.3-0.2-0.6-0.3-0.9-0.5s-0.7-0.4-1.1-0.7c-0.4-0.3-0.9-0.5-1.4-0.7c-0.6-0.2-1.2-0.4-1.8-0.5
			c-0.8-0.2-1.6-0.2-2.5-0.2c-1.5,0-3.1,0.3-4.5,0.9c-1.3,0.6-2.5,1.4-3.5,2.5s-1.8,2.5-2.3,3.9c-0.6,1.7-0.8,3.4-0.8,5.2
			c0,1.8,0.2,3.6,0.8,5.3c0.5,1.4,1.2,2.8,2.2,3.9c0.9,1,2,1.9,3.3,2.4c1.3,0.6,2.6,0.8,4,0.8c0.8,0,1.5,0,2.2-0.1
			c0.6-0.1,1.3-0.2,1.9-0.4c0.6-0.2,1.1-0.5,1.7-0.8s1.1-0.7,1.6-1.2c0.2-0.2,0.4-0.3,0.7-0.4C410,95.5,410.3,95.4,410.6,95.4z"/>
		<path class="st0" d="M419.5,105.5V66.6h8.1v14.3c1-0.8,2-1.5,3.2-2c1.3-0.5,2.7-0.8,4.1-0.8c1.3,0,2.7,0.2,3.9,0.8
			c1.1,0.5,2.1,1.2,2.9,2.1c0.8,1,1.4,2.1,1.8,3.2c0.4,1.3,0.6,2.7,0.6,4.1v17.1H436v-17c0.1-1.1-0.3-2.2-0.9-3.1
			c-0.7-0.8-1.7-1.2-2.7-1.1c-0.9,0-1.7,0.2-2.5,0.6s-1.6,0.9-2.2,1.5v19.2C427.7,105.5,419.5,105.5,419.5,105.5z"/>
		<path class="st0" d="M459.4,71.2c0,0.6-0.1,1.2-0.4,1.8c-0.3,0.6-0.6,1.1-1.1,1.5s-1,0.8-1.6,1c-0.6,0.3-1.3,0.4-1.9,0.4
			s-1.3-0.1-1.8-0.4c-0.6-0.2-1.1-0.6-1.5-1s-0.8-0.9-1-1.5c-0.3-0.6-0.4-1.2-0.4-1.8c0-0.6,0.1-1.3,0.4-1.8c0.2-0.6,0.6-1.1,1-1.5
			s1-0.8,1.5-1c0.6-0.2,1.2-0.4,1.8-0.4c0.7,0,1.3,0.1,1.9,0.4c1.2,0.5,2.1,1.4,2.6,2.5C459.3,69.9,459.4,70.5,459.4,71.2z
			 M458.5,78.6v27h-8.1v-27H458.5z"/>
		<path class="st0" d="M473.9,66.6v38.9h-8.1V66.6H473.9z"/>
		<path class="st0" d="M499.6,105.5c-0.4,0-0.9-0.1-1.3-0.3c-0.4-0.2-0.6-0.6-0.7-1l-0.6-2.1c-0.5,0.6-1.1,1.1-1.7,1.6
			s-1.2,0.9-1.9,1.2c-0.7,0.3-1.4,0.6-2.2,0.8c-0.8,0.2-1.7,0.3-2.6,0.3c-1.4,0-2.7-0.3-3.9-0.9c-1.2-0.6-2.3-1.6-3.1-2.7
			c-0.9-1.3-1.6-2.8-2-4.3c-0.5-1.9-0.8-3.9-0.7-5.8c0-1.9,0.3-3.8,0.8-5.6c0.5-1.6,1.3-3.1,2.4-4.5c1-1.2,2.2-2.2,3.7-3
			c1.5-0.7,3.1-1.1,4.7-1.1c1.2,0,2.4,0.2,3.5,0.6c0.9,0.4,1.8,0.9,2.6,1.6V66.6h8.1v38.9C504.7,105.5,499.6,105.5,499.6,105.5z
			 M491.4,99.8c0.5,0,1.1-0.1,1.6-0.2s0.9-0.3,1.3-0.5s0.8-0.5,1.1-0.8c0.4-0.3,0.7-0.7,1.1-1.1V85.8c-0.5-0.6-1.2-1.1-2-1.4
			c-0.7-0.3-1.5-0.4-2.2-0.4s-1.4,0.1-2.1,0.4s-1.2,0.8-1.6,1.4c-0.5,0.8-0.9,1.6-1.1,2.5c-0.3,1.2-0.4,2.5-0.4,3.8
			c0,1.2,0.1,2.4,0.3,3.6c0.2,0.8,0.4,1.6,0.9,2.4c0.3,0.5,0.8,1,1.3,1.3C490.2,99.6,490.8,99.8,491.4,99.8z"/>
		<path class="st0" d="M511,105.5v-27h4.8c0.3,0,0.7,0,1,0.1c0.2,0.1,0.5,0.2,0.7,0.3c0.2,0.2,0.3,0.4,0.4,0.6
			c0.1,0.3,0.2,0.6,0.2,0.9l0.4,2.5c0.9-1.4,2-2.6,3.3-3.6c1.2-0.9,2.6-1.3,4-1.3c1.1-0.1,2.1,0.3,3,0.9l-1,5.9
			c0,0.3-0.2,0.6-0.4,0.8c-0.2,0.2-0.5,0.2-0.8,0.2s-0.7,0-1-0.1c-0.5-0.1-1-0.1-1.5-0.1c-2.1,0-3.8,1.1-5,3.4v16.5
			C519.1,105.5,511,105.5,511,105.5z"/>
		<path class="st0" d="M543.5,78.1c1.7,0,3.3,0.3,4.9,0.8c1.4,0.5,2.7,1.3,3.8,2.4s2,2.4,2.5,3.9c0.6,1.7,0.9,3.4,0.9,5.2
			c0,0.5,0,1-0.1,1.5c0,0.3-0.1,0.6-0.3,0.9c-0.1,0.2-0.3,0.4-0.6,0.5s-0.6,0.1-0.9,0.1h-15.5c0.1,1.8,0.8,3.6,2.1,4.9
			c1.2,1,2.7,1.6,4.3,1.5c0.8,0,1.6-0.1,2.4-0.3c0.6-0.2,1.2-0.5,1.8-0.8c0.5-0.3,1-0.5,1.5-0.8c0.4-0.2,0.9-0.3,1.4-0.3
			c0.6,0,1.1,0.2,1.5,0.7l2.3,2.9c-0.8,0.9-1.7,1.7-2.7,2.3c-0.9,0.6-1.9,1.1-3,1.4c-1,0.3-2,0.6-3,0.7s-1.9,0.2-2.9,0.2
			c-1.8,0-3.6-0.3-5.3-0.9c-1.6-0.6-3.1-1.5-4.3-2.7c-1.3-1.3-2.3-2.8-2.9-4.5c-0.8-2-1.1-4.1-1.1-6.3c0-1.7,0.3-3.5,0.9-5.1
			c1.2-3.2,3.7-5.8,6.8-7.1C539.7,78.5,541.6,78.1,543.5,78.1z M543.7,83.7c-1.3-0.1-2.6,0.4-3.6,1.3c-1,1.1-1.6,2.4-1.7,3.8h10
			c0-0.6-0.1-1.3-0.2-1.9c-0.2-0.6-0.4-1.1-0.8-1.6c-0.4-0.5-0.9-0.9-1.5-1.2C545.2,83.8,544.4,83.7,543.7,83.7z"/>
		<path class="st0" d="M560.8,105.5v-27h5c0.4,0,0.9,0.1,1.3,0.3c0.4,0.2,0.6,0.6,0.7,1l0.5,1.6c0.5-0.5,1.1-0.9,1.6-1.4
			c0.6-0.4,1.2-0.8,1.8-1.1c0.7-0.3,1.3-0.5,2.1-0.7s1.6-0.3,2.4-0.2c1.3,0,2.7,0.2,3.9,0.8c1.1,0.5,2.1,1.2,2.9,2.1
			c0.8,1,1.4,2.1,1.8,3.2c0.4,1.3,0.6,2.7,0.6,4.1v17.1h-8.1V88.4c0.1-1.1-0.3-2.2-0.9-3.1c-0.7-0.8-1.7-1.2-2.7-1.1
			c-0.9,0-1.7,0.2-2.5,0.6s-1.6,0.9-2.2,1.5v19.2C569,105.5,560.8,105.5,560.8,105.5z"/>
	</g>
	<g id="save-the-children-symbol">
		<path class="st1" d="M138.8,56.2c4.8-5.6,6.9-8.2,6.4-9.7c-0.6-1.3-1.8-2.3-3.1-2.6c-1.8-0.7-4.3-1-5.5-0.3
			c-1,0.8-1.9,1.8-2.7,2.8l-1.5,1.7l0,0c-1-1-2-2-3-2.8c-7.3-6.4-16.3-10.5-25.9-12c-3.9-4.1-8.9-6-13.9-5.3
			c-4.3,0.7-8.1,3.3-10.4,7c-9.9,3-18.7,8.6-25.7,16.3l0,0c-1.6-0.5-5,0.1-7.2,1.3c-1,0.4-1.8,1.3-2.1,2.3c-0.1,0.7,0.2,1.7,2.8,4.8
			l0,0c-6.9,10.9-9.8,23.8-8.4,36.6c1.5,12.8,7.6,24.6,17.3,33.1c3.4,3,7.2,5.5,11.2,7.4c18.8,9.1,40.8,8.3,58.9-2.1l0,0
			c1.5-0.9,2-2.7,1.3-4.2l-0.2-0.5c-3-6.6-12-26.9-7-45.3c2.1-7.7,8.2-15.9,13.4-22.4l0,0c5.6,8.6,8.4,18.8,8,29.1
			c-0.3,9.4-3.5,18.5-9.2,26c-0.3,0.3-0.3,0.7-0.2,1.1l0.6,1.3c0.3,0.5,0.9,0.8,1.4,0.5c0.2-0.1,0.3-0.2,0.4-0.3l0,0
			C149.4,101.4,151.2,75.5,138.8,56.2z M73.3,99.8c-2,10.1-2.4,20.5-1.3,30.8l0,0c-3.8-1.9-7.4-4.4-10.7-7.2
			c-8.8-7.6-14.7-18-16.8-29.5c-2-10.7-0.2-21.8,5.1-31.3l0,0l0,0l0,0c2,2.1,4.4,4.5,6.9,6.9c6.1,6.1,13.1,13,16.5,17.9
			C75,90.2,74.4,93.8,73.3,99.8 M126.8,54.1c-11.3,11.4-22,17.6-31.7,18.3c-7.5,0.6-15.4-1.7-23.5-6.6c-5.4-3.4-10.5-7.4-15-11.9
			l-0.3-0.3l0,0c5.6-6,12.6-10.3,20.5-12.7l0,0l0,0l0,0c-0.8,3.2-1,6.4-0.5,9.7c0.8,5.7,3.8,10.8,8.3,14.3c6.4,5,15.6,3.8,20.6-2.5
			c0.2-0.3,0.4-0.5,0.6-0.8c3.3-4.7,4.5-10.5,3.6-16.2c-0.2-1.1-0.4-2.2-0.7-3.2l0,0c5.7,2.2,11,5.3,15.5,9.4
			C125,52.3,125.9,53.1,126.8,54.1L126.8,54.1z"/>
	</g>
</g>
</svg>
